<svg width="68" height="61" viewBox="0 0 68 61" fill="none" xmlns="http://www.w3.org/2000/svg">
<g clip-path="url(#clip0)">
<path d="M67.1125 21.141L50.1121 37.3424C48.3201 39.0503 45.3333 37.784 45.3333 35.2636V26.6899C28.2655 26.8055 21.0651 30.8733 25.8807 47.105C26.41 48.8889 24.3642 50.2702 22.9286 49.1697C18.3284 45.6431 14.1667 38.8978 14.1667 32.089C14.1667 14.9403 28.0499 11.5372 45.3333 11.4405V2.86059C45.3333 0.337904 48.3221 -0.924272 50.1121 0.781822L67.1125 16.9835C68.2954 18.1109 68.2963 20.0127 67.1125 21.141V21.141ZM45.3333 45.1693V53.3748H7.55556V15.2498H13.5665C13.7572 15.2497 13.946 15.2106 14.1215 15.135C14.2969 15.0594 14.4554 14.9488 14.5874 14.8098C16.3527 12.955 18.3932 11.487 20.6099 10.3211C21.9239 9.62992 21.437 7.62478 19.9553 7.62478H5.66667C2.53701 7.62478 0 10.1851 0 13.3435V55.281C0 58.4394 2.53701 60.9998 5.66667 60.9998H47.2222C50.3519 60.9998 52.8889 58.4394 52.8889 55.281V44.7006C52.8889 43.7132 51.9212 43.0248 50.9987 43.3541C49.7054 43.8157 48.3203 43.9538 46.9625 43.7564C46.1042 43.6318 45.3333 44.2942 45.3333 45.1693V45.1693Z" fill="white"/>
</g>
<defs>
<clipPath id="clip0">
<rect width="68" height="61" fill="white"/>
</clipPath>
</defs>
</svg>
