<svg width="63" height="69" viewBox="0 0 63 69" fill="none" xmlns="http://www.w3.org/2000/svg">
<path d="M0.375 53.4583V62.9375C0.375 66.0789 2.69727 68.625 5.5625 68.625H57.4375C60.301 68.625 62.625 66.0789 62.625 62.9375V53.4583H0.375Z" fill="#90A4AE"/>
<path d="M57.4375 0.375H29.7708C26.9056 0.375 24.5833 2.9211 24.5833 6.0625V19.3333C24.5833 22.4747 22.2611 25.0208 19.3958 25.0208H5.5625C2.69727 25.0208 0.375 27.5669 0.375 30.7083V53.4583C0.375 56.5997 2.69727 59.1458 5.5625 59.1458H57.4375C60.301 59.1458 62.625 56.5997 62.625 53.4583V6.0625C62.625 2.9211 60.301 0.375 57.4375 0.375Z" fill="#CFD8DC"/>
<path d="M41.875 17.4375V38.2917H33.2292V32.6042L24.5834 40.1875L33.2292 47.7708V42.0833H41.875H45.3334V38.2917V17.4375H41.875Z" fill="#FF9191"/>
</svg>
