<svg width="108" height="60" viewBox="0 0 108 60" fill="none" xmlns="http://www.w3.org/2000/svg">
<path d="M86 49.7964V10.0921C86 7.34282 88.8051 5.96603 90.4456 7.91002L107.198 27.7622C108.215 28.9672 108.215 30.9212 107.198 32.1263L90.4456 51.9784C88.8051 53.9226 86 52.5456 86 49.7964Z" fill="#FF9191"/>
<path d="M7.51039 15.77C6.63039 15.47 5.83039 15.17 5.11039 14.87C4.39039 14.55 3.77039 14.17 3.25039 13.73C2.73039 13.29 2.32039 12.77 2.02039 12.17C1.74039 11.55 1.60039 10.8 1.60039 9.92C1.60039 8.22 2.25039 6.86 3.55039 5.84C4.87039 4.82 6.71039 4.31 9.07039 4.31C9.93039 4.31 10.7304 4.37 11.4704 4.49C12.2104 4.61 12.8404 4.8 13.3604 5.06C13.9004 5.3 14.3204 5.62 14.6204 6.02C14.9204 6.4 15.0704 6.85 15.0704 7.37C15.0704 7.89 14.9504 8.34 14.7104 8.72C14.4704 9.08 14.1804 9.39 13.8404 9.65C13.4004 9.37 12.8104 9.13 12.0704 8.93C11.3304 8.71 10.5204 8.6 9.64039 8.6C8.74039 8.6 8.08039 8.73 7.66039 8.99C7.24039 9.23 7.03039 9.54 7.03039 9.92C7.03039 10.22 7.16039 10.47 7.42039 10.67C7.68039 10.85 8.07039 11.02 8.59039 11.18L10.1804 11.69C12.0604 12.29 13.5004 13.06 14.5004 14C15.5204 14.92 16.0304 16.18 16.0304 17.78C16.0304 19.48 15.3604 20.86 14.0204 21.92C12.6804 22.96 10.7104 23.48 8.11039 23.48C7.19039 23.48 6.33039 23.4 5.53039 23.24C4.75039 23.1 4.06039 22.89 3.46039 22.61C2.88039 22.31 2.42039 21.95 2.08039 21.53C1.76039 21.09 1.60039 20.59 1.60039 20.03C1.60039 19.45 1.77039 18.96 2.11039 18.56C2.45039 18.14 2.82039 17.82 3.22039 17.6C3.78039 18.04 4.46039 18.42 5.26039 18.74C6.08039 19.06 6.97039 19.22 7.93039 19.22C8.91039 19.22 9.60039 19.07 10.0004 18.77C10.4004 18.47 10.6004 18.12 10.6004 17.72C10.6004 17.32 10.4404 17.02 10.1204 16.82C9.80039 16.6 9.35039 16.39 8.77039 16.19L7.51039 15.77ZM23.5838 17.99C23.5838 18.51 23.7438 18.88 24.0638 19.1C24.4038 19.32 24.8738 19.43 25.4738 19.43C25.7738 19.43 26.0838 19.41 26.4038 19.37C26.7238 19.31 27.0038 19.24 27.2438 19.16C27.4238 19.38 27.5738 19.63 27.6938 19.91C27.8338 20.17 27.9038 20.49 27.9038 20.87C27.9038 21.63 27.6138 22.25 27.0338 22.73C26.4738 23.21 25.4738 23.45 24.0338 23.45C22.2738 23.45 20.9138 23.05 19.9538 22.25C19.0138 21.45 18.5438 20.15 18.5438 18.35V5.51C18.7638 5.45 19.0738 5.39 19.4738 5.33C19.8938 5.25 20.3338 5.21 20.7938 5.21C21.6738 5.21 22.3538 5.37 22.8338 5.69C23.3338 5.99 23.5838 6.64 23.5838 7.64V9.56H27.5138C27.6338 9.78 27.7438 10.06 27.8438 10.4C27.9638 10.72 28.0238 11.08 28.0238 11.48C28.0238 12.18 27.8638 12.69 27.5438 13.01C27.2438 13.31 26.8338 13.46 26.3138 13.46H23.5838V17.99ZM36.7355 19.76C37.0755 19.76 37.4455 19.73 37.8455 19.67C38.2655 19.59 38.5755 19.49 38.7755 19.37V16.97L36.6155 17.15C36.0555 17.19 35.5955 17.31 35.2355 17.51C34.8755 17.71 34.6955 18.01 34.6955 18.41C34.6955 18.81 34.8455 19.14 35.1455 19.4C35.4655 19.64 35.9955 19.76 36.7355 19.76ZM36.4955 7.97C37.5755 7.97 38.5555 8.08 39.4355 8.3C40.3355 8.52 41.0955 8.86 41.7155 9.32C42.3555 9.76 42.8455 10.33 43.1855 11.03C43.5255 11.71 43.6955 12.52 43.6955 13.46V20.18C43.6955 20.7 43.5455 21.13 43.2455 21.47C42.9655 21.79 42.6255 22.07 42.2255 22.31C40.9255 23.09 39.0955 23.48 36.7355 23.48C35.6755 23.48 34.7155 23.38 33.8555 23.18C33.0155 22.98 32.2855 22.68 31.6655 22.28C31.0655 21.88 30.5955 21.37 30.2555 20.75C29.9355 20.13 29.7755 19.41 29.7755 18.59C29.7755 17.21 30.1855 16.15 31.0055 15.41C31.8255 14.67 33.0955 14.21 34.8155 14.03L38.7455 13.61V13.4C38.7455 12.82 38.4855 12.41 37.9655 12.17C37.4655 11.91 36.7355 11.78 35.7755 11.78C35.0155 11.78 34.2755 11.86 33.5555 12.02C32.8355 12.18 32.1855 12.38 31.6055 12.62C31.3455 12.44 31.1255 12.17 30.9455 11.81C30.7655 11.43 30.6755 11.04 30.6755 10.64C30.6755 10.12 30.7955 9.71 31.0355 9.41C31.2955 9.09 31.6855 8.82 32.2055 8.6C32.7855 8.38 33.4655 8.22 34.2455 8.12C35.0455 8.02 35.7955 7.97 36.4955 7.97ZM51.9139 22.97C51.7139 23.03 51.3939 23.09 50.9539 23.15C50.5339 23.21 50.0939 23.24 49.6339 23.24C49.1939 23.24 48.7939 23.21 48.4339 23.15C48.0939 23.09 47.8039 22.97 47.5639 22.79C47.3239 22.61 47.1339 22.37 46.9939 22.07C46.8739 21.75 46.8139 21.34 46.8139 20.84V11.84C46.8139 11.38 46.8939 10.99 47.0539 10.67C47.2339 10.33 47.4839 10.03 47.8039 9.77C48.1239 9.51 48.5139 9.28 48.9739 9.08C49.4539 8.86 49.9639 8.67 50.5039 8.51C51.0439 8.35 51.6039 8.23 52.1839 8.15C52.7639 8.05 53.3439 8 53.9239 8C54.8839 8 55.6439 8.19 56.2039 8.57C56.7639 8.93 57.0439 9.53 57.0439 10.37C57.0439 10.65 57.0039 10.93 56.9239 11.21C56.8439 11.47 56.7439 11.71 56.6239 11.93C56.2039 11.93 55.7739 11.95 55.3339 11.99C54.8939 12.03 54.4639 12.09 54.0439 12.17C53.6239 12.25 53.2239 12.34 52.8439 12.44C52.4839 12.52 52.1739 12.62 51.9139 12.74V22.97ZM64.2479 17.99C64.2479 18.51 64.4079 18.88 64.7279 19.1C65.0679 19.32 65.5379 19.43 66.1379 19.43C66.4379 19.43 66.7479 19.41 67.0679 19.37C67.3879 19.31 67.6679 19.24 67.9079 19.16C68.0879 19.38 68.2379 19.63 68.3579 19.91C68.4979 20.17 68.5679 20.49 68.5679 20.87C68.5679 21.63 68.2779 22.25 67.6979 22.73C67.1379 23.21 66.1379 23.45 64.6979 23.45C62.9379 23.45 61.5779 23.05 60.6179 22.25C59.6779 21.45 59.2079 20.15 59.2079 18.35V5.51C59.4279 5.45 59.7379 5.39 60.1379 5.33C60.5579 5.25 60.9979 5.21 61.4579 5.21C62.3379 5.21 63.0179 5.37 63.4979 5.69C63.9979 5.99 64.2479 6.64 64.2479 7.64V9.56H68.1779C68.2979 9.78 68.4079 10.06 68.5079 10.4C68.6279 10.72 68.6879 11.08 68.6879 11.48C68.6879 12.18 68.5279 12.69 68.2079 13.01C67.9079 13.31 67.4979 13.46 66.9779 13.46H64.2479V17.99ZM20.7784 52.88C20.5584 52.94 20.2084 53 19.7284 53.06C19.2684 53.12 18.8084 53.15 18.3484 53.15C17.8884 53.15 17.4784 53.11 17.1184 53.03C16.7784 52.97 16.4884 52.85 16.2484 52.67C16.0084 52.49 15.8284 52.24 15.7084 51.92C15.5884 51.6 15.5284 51.18 15.5284 50.66V45.98H9.76836V52.88C9.54836 52.94 9.19836 53 8.71836 53.06C8.25836 53.12 7.79836 53.15 7.33836 53.15C6.87836 53.15 6.46836 53.11 6.10836 53.03C5.76836 52.97 5.47836 52.85 5.23836 52.67C4.99836 52.49 4.81836 52.24 4.69836 51.92C4.57836 51.6 4.51836 51.18 4.51836 50.66V34.82C4.73836 34.78 5.08836 34.73 5.56836 34.67C6.04836 34.59 6.50836 34.55 6.94836 34.55C7.40836 34.55 7.80836 34.59 8.14836 34.67C8.50836 34.73 8.80836 34.85 9.04836 35.03C9.28836 35.21 9.46836 35.46 9.58836 35.78C9.70836 36.1 9.76836 36.52 9.76836 37.04V41.84H15.5284V34.82C15.7484 34.78 16.0984 34.73 16.5784 34.67C17.0584 34.59 17.5184 34.55 17.9584 34.55C18.4184 34.55 18.8184 34.59 19.1584 34.67C19.5184 34.73 19.8184 34.85 20.0584 35.03C20.2984 35.21 20.4784 35.46 20.5984 35.78C20.7184 36.1 20.7784 36.52 20.7784 37.04V52.88ZM31.9946 53.48C30.8146 53.48 29.7146 53.32 28.6946 53C27.6946 52.66 26.8146 52.16 26.0546 51.5C25.3146 50.84 24.7246 50.01 24.2846 49.01C23.8646 48.01 23.6546 46.84 23.6546 45.5C23.6546 44.18 23.8646 43.05 24.2846 42.11C24.7246 41.15 25.2946 40.37 25.9946 39.77C26.6946 39.15 27.4946 38.7 28.3946 38.42C29.2946 38.12 30.2146 37.97 31.1546 37.97C32.2146 37.97 33.1746 38.13 34.0346 38.45C34.9146 38.77 35.6646 39.21 36.2846 39.77C36.9246 40.33 37.4146 41 37.7546 41.78C38.1146 42.56 38.2946 43.41 38.2946 44.33C38.2946 45.01 38.1046 45.53 37.7246 45.89C37.3446 46.25 36.8146 46.48 36.1346 46.58L28.7246 47.69C28.9446 48.35 29.3946 48.85 30.0746 49.19C30.7546 49.51 31.5346 49.67 32.4146 49.67C33.2346 49.67 34.0046 49.57 34.7246 49.37C35.4646 49.15 36.0646 48.9 36.5246 48.62C36.8446 48.82 37.1146 49.1 37.3346 49.46C37.5546 49.82 37.6646 50.2 37.6646 50.6C37.6646 51.5 37.2446 52.17 36.4046 52.61C35.7646 52.95 35.0446 53.18 34.2446 53.3C33.4446 53.42 32.6946 53.48 31.9946 53.48ZM31.1546 41.69C30.6746 41.69 30.2546 41.77 29.8946 41.93C29.5546 42.09 29.2746 42.3 29.0546 42.56C28.8346 42.8 28.6646 43.08 28.5446 43.4C28.4446 43.7 28.3846 44.01 28.3646 44.33L33.4946 43.49C33.4346 43.09 33.2146 42.69 32.8346 42.29C32.4546 41.89 31.8946 41.69 31.1546 41.69ZM45.8495 52.97C45.6495 53.03 45.3295 53.09 44.8895 53.15C44.4695 53.21 44.0295 53.24 43.5695 53.24C43.1295 53.24 42.7295 53.21 42.3695 53.15C42.0295 53.09 41.7395 52.97 41.4995 52.79C41.2595 52.61 41.0695 52.37 40.9295 52.07C40.8095 51.75 40.7495 51.34 40.7495 50.84V41.84C40.7495 41.38 40.8295 40.99 40.9895 40.67C41.1695 40.33 41.4195 40.03 41.7395 39.77C42.0595 39.51 42.4495 39.28 42.9095 39.08C43.3895 38.86 43.8995 38.67 44.4395 38.51C44.9795 38.35 45.5395 38.23 46.1195 38.15C46.6995 38.05 47.2795 38 47.8595 38C48.8195 38 49.5795 38.19 50.1395 38.57C50.6995 38.93 50.9795 39.53 50.9795 40.37C50.9795 40.65 50.9395 40.93 50.8595 41.21C50.7795 41.47 50.6795 41.71 50.5595 41.93C50.1395 41.93 49.7095 41.95 49.2695 41.99C48.8295 42.03 48.3995 42.09 47.9795 42.17C47.5595 42.25 47.1595 42.34 46.7795 42.44C46.4195 42.52 46.1095 42.62 45.8495 42.74V52.97ZM60.2368 53.48C59.0568 53.48 57.9568 53.32 56.9368 53C55.9368 52.66 55.0568 52.16 54.2968 51.5C53.5568 50.84 52.9668 50.01 52.5268 49.01C52.1068 48.01 51.8968 46.84 51.8968 45.5C51.8968 44.18 52.1068 43.05 52.5268 42.11C52.9668 41.15 53.5368 40.37 54.2368 39.77C54.9368 39.15 55.7368 38.7 56.6368 38.42C57.5368 38.12 58.4568 37.97 59.3968 37.97C60.4568 37.97 61.4168 38.13 62.2768 38.45C63.1568 38.77 63.9068 39.21 64.5268 39.77C65.1668 40.33 65.6568 41 65.9968 41.78C66.3568 42.56 66.5368 43.41 66.5368 44.33C66.5368 45.01 66.3468 45.53 65.9668 45.89C65.5868 46.25 65.0568 46.48 64.3768 46.58L56.9668 47.69C57.1868 48.35 57.6368 48.85 58.3168 49.19C58.9968 49.51 59.7768 49.67 60.6568 49.67C61.4768 49.67 62.2468 49.57 62.9668 49.37C63.7068 49.15 64.3068 48.9 64.7668 48.62C65.0868 48.82 65.3568 49.1 65.5768 49.46C65.7968 49.82 65.9068 50.2 65.9068 50.6C65.9068 51.5 65.4868 52.17 64.6468 52.61C64.0068 52.95 63.2868 53.18 62.4868 53.3C61.6868 53.42 60.9368 53.48 60.2368 53.48ZM59.3968 41.69C58.9168 41.69 58.4968 41.77 58.1368 41.93C57.7968 42.09 57.5168 42.3 57.2968 42.56C57.0768 42.8 56.9068 43.08 56.7868 43.4C56.6868 43.7 56.6268 44.01 56.6068 44.33L61.7368 43.49C61.6768 43.09 61.4568 42.69 61.0768 42.29C60.6968 41.89 60.1368 41.69 59.3968 41.69Z" fill="white"/>
</svg>
