<svg width="42" height="42" viewBox="0 0 42 42" fill="none" xmlns="http://www.w3.org/2000/svg">
<g clip-path="url(#clip0)">
<path d="M27.8425 23.345L32.4555 16.2995L31.661 15.589L25.2332 21.0122C24.052 20.7707 22.7797 21.1312 21.9187 22.0938C20.6307 23.534 20.755 25.7478 22.197 27.0358C23.639 28.3238 25.851 28.1995 27.139 26.7575C28 25.795 28.2152 24.4913 27.8425 23.345V23.345ZM21 4.7145V0H28V4.7145C25.4817 4.28925 23.464 4.298 21 4.7145ZM36.4892 8.3265L38.9515 5.86425L41.426 8.33875L39.1142 10.6505C38.3057 9.8035 37.4272 9.02825 36.4892 8.3265V8.3265ZM3.5 15.75H17.5V19.25H3.5V15.75ZM0 22.75H14V26.25H0V22.75ZM5.25 29.75H17.5V33.25H5.25V29.75ZM42 24.5C42 34.1652 34.1652 42 24.5 42C19.6175 42 15.225 39.9788 12.0557 36.75H17.7957C19.7872 37.8542 22.064 38.5 24.5 38.5C32.2192 38.5 38.5 32.2192 38.5 24.5C38.5 16.7808 32.2192 10.5 24.5 10.5C22.064 10.5 19.7872 11.1458 17.7957 12.25H12.0557C15.225 9.02125 19.6175 7 24.5 7C34.1652 7 42 14.8348 42 24.5Z" fill="white"/>
</g>
<defs>
<clipPath id="clip0">
<rect width="42" height="42" fill="white"/>
</clipPath>
</defs>
</svg>
