<svg width="79" height="52" viewBox="0 0 79 52" fill="none" xmlns="http://www.w3.org/2000/svg">
<path d="M74.021 7.57771L74.0222 7.5764C74.4838 7.04071 74.654 6.16906 74.3482 5.31126C74.2055 4.91119 74.0099 4.68029 73.8879 4.58054C73.7995 4.50828 73.7566 4.5 73.6844 4.5H5.3156C5.24336 4.5 5.20048 4.50828 5.11208 4.58054C4.99006 4.68029 4.79447 4.91119 4.65184 5.31126C4.34604 6.16906 4.51616 7.0407 4.97782 7.5764L4.97895 7.57771L39.1489 47.2586L74.021 7.57771ZM74.021 7.57771L39.8511 47.2586M74.021 7.57771L39.8511 47.2586M39.8511 47.2586C39.7306 47.3984 39.6352 47.4542 39.5893 47.4758C39.5422 47.4979 39.5139 47.5 39.5 47.5C39.4861 47.5 39.4577 47.4979 39.4107 47.4758C39.3649 47.4543 39.27 47.3987 39.1501 47.2599L39.8511 47.2586Z" fill="#FF9191" stroke="white" stroke-width="9"/>
</svg>
